<?xml version="1.0" encoding="UTF-8"?>
<svg version="1.1" xmlns="http://www.w3.org/2000/svg" width="580" height="377">
<path d="M0 0 C1.38659821 0.00351175 1.38659821 0.00351175 2.8012085 0.00709444 C4.26630985 0.00491428 4.26630985 0.00491428 5.76100922 0.00269008 C9.07760607 -0.00099799 12.39415777 0.00252939 15.71075439 0.00595194 C18.09503961 0.00480123 20.47932465 0.00321404 22.86360931 0.0012247 C28.07002571 -0.0020957 33.27643269 -0.00226973 38.48284912 0.00027186 C46.22473603 0.00404097 53.96661414 0.00212759 61.70850098 -0.00093645 C75.53229578 -0.00621351 89.35608597 -0.00574131 103.17988122 -0.00285754 C115.27700545 -0.00034623 127.374128 0.00031671 139.47125244 -0.00088018 C140.27234702 -0.00095657 141.07344159 -0.00103295 141.89881176 -0.00111165 C145.15036475 -0.00142297 148.40191774 -0.00174137 151.65347072 -0.00207142 C182.18226492 -0.00513337 212.71105618 -0.00235228 243.23984993 0.00302548 C270.38835612 0.00777141 297.53685762 0.0073468 324.68536377 0.00256449 C355.15679242 -0.00278517 385.62821847 -0.00491625 416.09964752 -0.00182325 C419.34542338 -0.00150251 422.59119924 -0.00118967 425.8369751 -0.00088018 C426.63622215 -0.0008011 427.43546921 -0.00072203 428.25893587 -0.00064055 C440.35119315 0.00049898 452.44344855 -0.00083718 464.53570557 -0.00335974 C478.27922736 -0.00621239 492.0227438 -0.00551832 505.76626492 -0.00007899 C513.46677042 0.00286778 521.16726435 0.00303395 528.86776957 -0.00072517 C534.60178895 -0.00321662 540.33579623 -0.00053482 546.06981373 0.00424941 C548.40154915 0.00537476 550.73328611 0.00477984 553.06502056 0.00237362 C556.21237621 -0.00062737 559.35966691 0.00241099 562.50701904 0.00709444 C563.43141785 0.00475328 564.35581665 0.00241211 565.30822754 0 C571.53996343 0.01878525 571.53996343 0.01878525 572.65411377 1.13293558 C572.77220031 4.25553907 572.82424195 7.35661555 572.83493042 10.48031718 C572.8457372 11.97066247 572.8457372 11.97066247 572.85676229 13.49111575 C572.87963316 16.84811053 572.89510243 20.2050978 572.91046143 23.5621348 C572.9249014 25.95819891 572.93965891 28.35426112 572.95471191 30.75032145 C573.0851833 52.65900721 573.15112264 74.5682323 573.2025547 96.47723299 C573.20956366 99.41129561 573.2166906 102.34535792 573.22393799 105.27941996 C573.22663093 106.37329451 573.22663093 106.37329451 573.22937827 107.48926754 C573.25940561 119.28664372 573.32413361 131.0835727 573.40262444 142.8807153 C573.48256144 154.99565376 573.5282541 167.11036122 573.54158056 179.22555846 C573.54997613 186.02654695 573.5736155 192.82674446 573.63624954 199.62746912 C573.69356015 206.03157062 573.70814909 212.43437121 573.69037628 218.83869082 C573.6912536 221.1852389 573.70746953 223.5318408 573.7404213 225.87815768 C574.00562757 245.8017476 574.00562757 245.8017476 568.37832642 252.83047587 C566.85424069 254.31834567 565.27986436 255.75688003 563.65411377 257.13293558 C562.11157135 258.65288066 560.56979512 260.17360409 559.02911377 261.69543558 C527.08805924 289.25628387 483.01672332 298.30664287 441.84207153 298.27096659 C440.48748319 298.27339092 439.13289558 298.27625511 437.77830899 298.27951592 C434.08905062 298.28719735 430.39981092 298.28888445 426.71054554 298.28956705 C422.71854918 298.29141981 418.72656341 298.29903397 414.73457336 298.30604655 C407.82507334 298.31753373 400.91557571 298.32579815 394.00606918 298.33216578 C383.07014123 298.3425344 372.13424321 298.36310883 361.19833374 298.38528544 C357.44945345 298.39276388 353.70057304 298.40017781 349.95169258 298.40757281 C348.54659133 298.41034866 348.54659133 298.41034866 347.11310419 298.41318058 C336.4666207 298.43407838 325.82013393 298.45292045 315.17364502 298.47082621 C313.71503804 298.47328348 313.71503804 298.47328348 312.22696425 298.4757904 C296.47773407 298.50206177 280.72850156 298.52071567 264.97925876 298.53741811 C248.77664679 298.55487772 232.57408041 298.58376217 216.3715049 298.62230748 C206.39631037 298.64561739 196.42119021 298.6596939 186.44596823 298.66163512 C179.60164944 298.66375486 172.75740447 298.67677009 165.91311888 298.69811444 C161.97364408 298.71006302 158.0343157 298.71734908 154.09482384 298.711402 C138.72972 298.69121682 123.71158951 298.71792785 108.65411377 302.13293558 C107.70931593 302.3362619 106.76451809 302.53958822 105.79109001 302.74907595 C103.72104399 303.20960935 101.69250536 303.73675064 99.65411377 304.32043558 C98.92539063 304.52692728 98.19666748 304.73341898 97.44586182 304.94616801 C88.82358866 307.51373859 80.72193047 311.18742892 72.65411377 315.13293558 C71.99814209 315.45133402 71.34217041 315.76973246 70.6663208 316.09777933 C55.17785078 323.71363504 41.53473987 333.71177437 28.65411377 345.13293558 C27.74790283 345.92828715 26.84169189 346.72363871 25.90802002 347.54309183 C16.50722353 355.88504671 6.89758514 364.70946136 0.20489502 375.46106058 C-1.34588623 377.13293558 -1.34588623 377.13293558 -3.94281006 377.23742777 C-5.13233276 377.18570414 -5.13233276 377.18570414 -6.34588623 377.13293558 C-7.10095961 330.74077151 -7.50069823 284.36096892 -7.48118568 237.96280646 C-7.47885243 232.25343253 -7.47863687 226.54406157 -7.479702 220.83468729 C-7.47985523 220.00393232 -7.48000846 219.17317735 -7.48016634 218.31724799 C-7.4804862 216.62743471 -7.48081041 214.93762143 -7.48113893 213.24780816 C-7.48393765 197.70026419 -7.48079057 182.15272628 -7.47533856 166.6051833 C-7.47081449 153.2880965 -7.47170246 139.97101835 -7.47625732 126.65393168 C-7.48159978 111.02764469 -7.48372609 95.40136279 -7.48064506 79.77507502 C-7.48032659 78.11553294 -7.48001222 76.45599085 -7.479702 74.79644877 C-7.47954772 73.98059817 -7.47939344 73.16474757 -7.47923449 72.32417423 C-7.47837283 66.59003694 -7.47982337 60.85590293 -7.48218155 55.12176615 C-7.48497326 48.18534883 -7.48425214 41.24894283 -7.47890081 34.31252682 C-7.47626465 30.77982435 -7.47525818 27.24714085 -7.47854996 23.7144385 C-7.4820533 19.89795335 -7.47788703 16.08149967 -7.47286987 12.26501566 C-7.47510059 11.13876591 -7.47733132 10.01251616 -7.47962964 8.85213763 C-7.47571801 7.33347629 -7.47571801 7.33347629 -7.47172737 5.78413492 C-7.47156502 4.90364387 -7.47140267 4.02315281 -7.47123539 3.11598021 C-7.1907929 -1.32066665 -3.6342162 0.01095516 0 0 Z M142.96661377 42.13293558 C131.81737099 49.44408763 120.7933484 55.40427459 108.34161377 60.19543558 C97.09894278 64.54407546 86.28767383 70.13837782 80.52520752 81.32434183 C77.94938806 87.96602879 78.43849748 93.68868944 80.77911377 100.32043558 C83.78236124 104.82530679 87.47318125 108.40595808 92.65411377 110.13293558 C94.98587291 110.22822382 97.32041351 110.26279746 99.65411377 110.25793558 C100.89161377 110.26051371 102.12911377 110.26309183 103.40411377 110.26574808 C106.6664215 110.2828486 106.6664215 110.2828486 109.65411377 109.13293558 C108.6971756 115.31811154 105.81530505 120.70246921 103.14654541 126.29602152 C102.23302364 128.22331502 101.34687376 130.16167557 100.46075439 132.10168558 C95.19612033 143.33399799 88.24716457 152.68117872 77.46661377 159.25793558 C76.83569824 159.66133158 76.20478271 160.06472758 75.55474854 160.48034769 C73.60056861 161.71995569 71.63180394 162.93124492 69.65411377 164.13293558 C69.02279541 164.51691508 68.39147705 164.90089457 67.74102783 165.2965098 C64.62117242 167.18501288 61.48945917 169.05286712 58.35333252 170.91418558 C40.2125002 181.39766999 40.2125002 181.39766999 24.65411377 195.13293558 C24.05598877 195.77231058 23.45786377 196.41168558 22.84161377 197.07043558 C21.24898075 199.83658766 21.44043004 201.99890759 21.65411377 205.13293558 C24.99018349 206.5555983 26.96827365 207.28708807 30.55645752 206.48059183 C36.30581038 204.04618116 41.99566147 201.53164554 47.64630127 198.87512308 C68.37237368 189.16407964 89.16525214 179.66657114 110.61505127 171.64856058 C111.78294189 171.21027933 112.95083252 170.77199808 114.15411377 170.32043558 C115.13380127 169.96336527 116.11348877 169.60629496 117.12286377 169.23840433 C119.65984658 168.1304319 121.59629373 166.98206161 123.65411377 165.13293558 C123.65411377 164.47293558 123.65411377 163.81293558 123.65411377 163.13293558 C124.31411377 163.13293558 124.97411377 163.13293558 125.65411377 163.13293558 C126.05630127 164.30856058 126.05630127 164.30856058 126.46661377 165.50793558 C127.50225809 168.41408481 127.50225809 168.41408481 130.65411377 170.13293558 C132.75015292 170.34919316 132.75015292 170.34919316 135.04083252 170.17981058 C136.32570557 170.11600199 136.32570557 170.11600199 137.63653564 170.05090433 C138.52921143 169.99547465 139.42188721 169.94004496 140.34161377 169.88293558 C141.21495361 169.84297465 142.08829346 169.80301371 142.98809814 169.76184183 C148.44331148 169.4603588 153.43614754 168.78812847 158.65411377 167.13293558 C160.62539365 164.84788721 160.62539365 164.84788721 161.65411377 162.13293558 C163.50865922 158.20566286 163.50865922 158.20566286 165.65411377 157.13293558 C165.73661377 157.83418558 165.81911377 158.53543558 165.90411377 159.25793558 C166.8928053 163.04791977 168.00337065 165.21711815 170.65411377 168.13293558 C174.5295378 169.49767773 178.19878292 169.65347252 182.07452393 168.26721293 C184.53244997 167.01145165 186.87070859 165.64931756 189.21661377 164.19543558 C190.03452393 163.71397074 190.85243408 163.2325059 191.69512939 162.73645121 C193.69474798 161.55538994 195.67919015 160.354686 197.65411377 159.13293558 C198.18520752 159.54285746 198.71630127 159.95277933 199.26348877 160.37512308 C199.96989502 160.91395121 200.67630127 161.45277933 201.40411377 162.00793558 C202.10020752 162.54160746 202.79630127 163.07527933 203.51348877 163.62512308 C209.42711307 167.79055918 214.55717841 167.71938892 221.65411377 167.13293558 C225.40049086 166.34923155 229.02142739 165.33429643 232.65411377 164.13293558 C233.39661377 165.08168558 234.13911377 166.03043558 234.90411377 167.00793558 C238.02917814 170.70912913 240.05182548 171.88642969 244.90411377 172.63293558 C252.89563779 171.56739905 258.63718301 164.45746251 264.35723877 159.18371683 C266.38670759 157.3716911 268.45037806 155.72508409 270.65411377 154.13293558 C273.82245147 155.54108567 276.02025082 157.25505744 278.52911377 159.63293558 C283.96853727 164.44242585 288.7697219 165.63131497 295.94708252 165.43762308 C307.67275337 164.11785061 316.32337518 157.25978442 323.84161377 148.57043558 C332.71878134 136.90227213 338.00947314 122.86510264 336.65411377 108.13293558 C335.83947096 104.07384831 334.81866092 100.10487318 333.65411377 96.13293558 C342.29251257 90.59831759 350.86016046 85.39758669 360.65411377 82.13293558 C360.20084717 83.22009867 359.74758057 84.30726176 359.28057861 85.42736918 C357.56325044 89.5511979 355.85438745 93.67849391 354.14776611 97.80676371 C353.41496226 99.57624032 352.68001503 101.34483116 351.94268799 103.11242777 C348.09429584 112.3422687 344.34845541 121.5977847 341.06817627 131.04699808 C340.80588226 131.77550974 340.54358826 132.5040214 340.27334595 133.25460917 C338.81498474 137.59530198 338.37596418 140.71155665 339.65411377 145.13293558 C342.1204456 148.73594254 342.1204456 148.73594254 345.65411377 151.13293558 C359.39467068 152.12365886 359.39467068 152.12365886 371.65411377 147.13293558 C372.98204983 145.06592904 372.98204983 145.06592904 373.65411377 143.13293558 C374.06661377 143.77231058 374.47911377 144.41168558 374.90411377 145.07043558 C377.59752229 148.24480991 379.68787159 148.03433944 383.71661377 148.44543558 C389.11415253 148.01705949 393.65470392 146.11518567 398.65411377 144.13293558 C400.13911377 143.63793558 400.13911377 143.63793558 401.65411377 143.13293558 C403.48614502 144.27746683 403.48614502 144.27746683 405.46661377 145.94543558 C409.84005291 149.38512951 413.44858798 150.70879601 418.90411377 151.75793558 C424.73237484 150.78655874 428.35241 147.01052771 432.65411377 143.13293558 C435.19755545 144.33943997 437.14896058 145.51531721 439.40411377 147.25793558 C442.55313636 149.07467938 444.82047628 149.94661595 448.48614502 149.80481058 C453.0978994 148.3755822 456.37476973 144.53373681 459.65411377 141.13293558 C460.56161377 141.99918558 461.46911377 142.86543558 462.40411377 143.75793558 C470.80189692 150.94384353 479.98777343 154.48327644 490.96661377 154.00793558 C500.39507001 152.97468011 508.33492847 148.10302409 514.65411377 141.13293558 C519.24744804 135.06973435 522.25701958 128.81008991 522.65411377 121.13293558 C522.23108633 117.68402238 522.23108633 117.68402238 520.65411377 115.13293558 C518.62697972 113.96800159 518.62697972 113.96800159 516.65411377 113.13293558 C516.94286377 112.45488871 517.23161377 111.77684183 517.52911377 111.07824808 C520.79624663 102.88772751 522.35815048 95.89894315 519.15411377 87.44543558 C516.19573941 81.62145819 512.04748706 77.60390457 506.04083252 75.00012308 C495.89183995 71.81331071 487.02470373 73.373034 477.65411377 78.13293558 C475.2922222 79.60347636 473.01275512 81.13399457 470.75958252 82.76574808 C468.47667518 84.24815545 466.20452816 85.19822874 463.65411377 86.13293558 C461.40631627 84.08059874 460.65188957 83.12626298 459.65411377 80.13293558 C460.76786377 79.88543558 460.76786377 79.88543558 461.90411377 79.63293558 C465.94807931 77.4271362 467.19253231 74.40106443 468.65411377 70.13293558 C469.52894792 64.68952307 468.24592535 61.28751241 465.20489502 56.86731058 C461.87179597 53.1396129 457.99365674 52.3277782 453.21661377 51.63293558 C448.46468119 52.29987349 445.28753759 54.03143192 441.65411377 57.13293558 C438.32304054 61.81725731 438.20620229 65.57883322 438.65411377 71.13293558 C439.29065719 72.48090988 439.95016765 73.81890283 440.65411377 75.13293558 C440.59161377 77.19543558 440.59161377 77.19543558 439.65411377 79.13293558 C437.09161377 80.88293558 437.09161377 80.88293558 434.65411377 82.13293558 C434.35118408 81.59024027 434.04825439 81.04754496 433.73614502 80.48840433 C430.3472392 74.57205376 430.3472392 74.57205376 424.65411377 71.13293558 C418.58553398 70.19657269 414.15858369 71.39721829 408.79473877 74.25793558 C406.28586202 75.28346185 404.33941875 75.28316244 401.65411377 75.13293558 C401.74950439 74.48066996 401.84489502 73.82840433 401.94317627 73.15637308 C402.05403564 72.28238871 402.16489502 71.40840433 402.27911377 70.50793558 C402.39512939 69.64941996 402.51114502 68.79090433 402.63067627 67.90637308 C402.66015491 64.41806788 402.19664267 62.28052833 400.65411377 59.13293558 C398.39434909 57.36858085 396.36379418 55.97560425 393.90411377 54.57043558 C392.67765429 53.84417409 391.4536704 53.11371524 390.23223877 52.37902933 C389.62831299 52.02050883 389.02438721 51.66198832 388.40216064 51.29260355 C386.62898288 50.11626355 385.18397998 48.81334102 383.63848877 47.35559183 C380.80332697 44.89399685 380.80332697 44.89399685 377.24786377 44.54699808 C372.72690726 45.28411056 369.89916812 46.96846494 366.15411377 49.50793558 C365.45906738 49.96128275 364.764021 50.41462992 364.0479126 50.88171488 C361.9063914 52.28392737 359.7800216 53.70719791 357.65411377 55.13293558 C356.41928851 55.94542958 355.18364837 56.75668688 353.94708252 57.56652933 C350.16108566 60.05688532 346.40603198 62.59162689 342.65411377 65.13293558 C341.48598145 65.92135844 341.48598145 65.92135844 340.29425049 66.72570902 C337.78643333 68.41990071 335.28224223 70.11932542 332.77911377 71.82043558 C332.0065625 72.34290873 331.23401123 72.86538187 330.43804932 73.40368754 C325.66043275 76.66443775 321.12378379 80.09917577 316.68048096 83.80529886 C314.05343941 85.52648584 311.88367549 85.41886188 308.80645752 85.14465433 C299.50931197 85.09403467 291.54347232 91.64276977 284.65411377 97.13293558 C284.63993408 96.55027933 284.62575439 95.96762308 284.61114502 95.36731058 C284.14197038 87.30257887 282.25707601 78.51356313 276.18536377 72.81652933 C272.6643992 70.47465321 270.83067875 70.50645084 266.65411377 71.13293558 C254.33012163 75.8001368 250.29162739 86.46514764 245.19317627 97.69543558 C244.68528564 98.82981058 244.17739502 99.96418558 243.65411377 101.13293558 C242.86649658 101.08652933 242.07887939 101.04012308 241.26739502 100.99231058 C229.32109357 100.59645681 219.43797373 103.22668149 209.65411377 110.13293558 C208.88325439 109.56703715 208.11239502 109.00113871 207.31817627 108.41809183 C206.31528564 107.68461527 205.31239502 106.95113871 204.27911377 106.19543558 C202.78251221 105.09908793 202.78251221 105.09908793 201.25567627 103.98059183 C197.05305173 100.99584498 193.74224667 100.58484227 188.65411377 101.13293558 C186.16007247 101.93776692 184.00947192 102.95525651 181.65411377 104.13293558 C181.58450439 103.54899027 181.51489502 102.96504496 181.44317627 102.36340433 C179.81147322 97.75101601 174.72223757 95.46710498 170.65411377 93.13293558 C167.17716337 91.64710663 167.17716337 91.64710663 163.65411377 92.13293558 C161.30120662 93.23969907 161.30120662 93.23969907 158.93927002 94.64856058 C157.73282837 95.34127054 157.73282837 95.34127054 156.50201416 96.04797465 C155.89220703 96.40601176 155.2823999 96.76404886 154.65411377 97.13293558 C155.03221191 96.30680765 155.41031006 95.48067972 155.79986572 94.62951761 C157.21957399 91.51934881 158.63340231 88.40663835 160.04351807 85.29211527 C160.65126173 83.95286105 161.2612314 82.61461439 161.87359619 81.27746683 C168.7128475 68.93545617 168.7128475 68.93545617 169.94512939 55.98059183 C168.77577826 53.78227538 168.77577826 53.78227538 166.65411377 51.13293558 C165.99411377 51.13293558 165.33411377 51.13293558 164.65411377 51.13293558 C164.65411377 50.47293558 164.65411377 49.81293558 164.65411377 49.13293558 C163.99411377 49.13293558 163.33411377 49.13293558 162.65411377 49.13293558 C162.65411377 48.47293558 162.65411377 47.81293558 162.65411377 47.13293558 C161.99411377 47.13293558 161.33411377 47.13293558 160.65411377 47.13293558 C160.44786377 46.59668558 160.24161377 46.06043558 160.02911377 45.50793558 C158.12160951 42.2131555 155.60591993 39.5392993 152.65411377 37.13293558 C148.97755692 37.13293558 145.95536519 40.12986058 142.96661377 42.13293558 Z M535.65411377 76.13293558 C535.65411377 76.79293558 535.65411377 77.45293558 535.65411377 78.13293558 C534.66411377 78.46293558 533.67411377 78.79293558 532.65411377 79.13293558 C530.20398684 83.29815137 530.50343406 86.53021674 531.65411377 91.13293558 C533.49273669 94.08786527 534.98159946 95.73306221 537.96661377 97.50793558 C541.60418705 98.35388286 544.04450391 98.09979537 547.65411377 97.13293558 C551.00462051 94.6014416 552.44945129 92.59342615 554.15411377 88.75793558 C554.78043105 84.21713529 553.9269908 82.07258911 551.65411377 78.13293558 C546.93001306 73.24593485 541.59049803 73.73011338 535.65411377 76.13293558 Z " fill="#E00326" transform="translate(7.34588623046875,-0.13293558359146118)"/>
<path d="M0 0 C0.33 0 0.66 0 1 0 C1.18618963 8.30200973 1.32791801 16.60313305 1.41449738 24.90672112 C1.45607362 28.76343931 1.51236613 32.618719 1.60351562 36.47460938 C1.69108971 40.2030134 1.7384059 43.93004324 1.75901794 47.65939713 C1.7736861 49.07480612 1.80233018 50.49014833 1.84584045 51.90496445 C2.11272414 60.9513088 1.22219391 66.35586209 -5.03904724 73.09341431 C-5.68616165 73.72258759 -6.33327606 74.35176086 -7 75 C-7.80566406 75.8559375 -8.61132812 76.711875 -9.44140625 77.59375 C-41.67852915 106.56560263 -86.52401492 116.17467198 -128.81204224 116.13803101 C-130.16663058 116.14045534 -131.52121819 116.14331952 -132.87580478 116.14658034 C-136.56506315 116.15426177 -140.25430285 116.15594887 -143.94356823 116.15663147 C-147.93556459 116.15848423 -151.92755036 116.16609839 -155.91954041 116.17311096 C-162.82904043 116.18459815 -169.73853806 116.19286257 -176.64804459 116.19923019 C-187.58397254 116.20959882 -198.51987056 116.23017325 -209.45578003 116.25234985 C-213.20466032 116.2598283 -216.95354073 116.26724223 -220.70242119 116.27463722 C-222.10752244 116.27741307 -222.10752244 116.27741307 -223.54100958 116.280245 C-234.18749307 116.3011428 -244.83397984 116.31998487 -255.48046875 116.33789062 C-256.4528734 116.33952881 -257.42527806 116.34116699 -258.42714952 116.34285481 C-274.1763797 116.36912618 -289.9256122 116.38778009 -305.67485501 116.40448253 C-321.87746698 116.42194214 -338.08003336 116.45082658 -354.28260887 116.4893719 C-364.2578034 116.51268181 -374.23292356 116.52675832 -384.20814554 116.52869953 C-391.05246433 116.53081927 -397.8967093 116.54383451 -404.74099489 116.56517886 C-408.68046969 116.57712744 -412.61979807 116.58441349 -416.55928993 116.57846642 C-431.92439377 116.55828124 -446.94252426 116.58499227 -462 120 C-462.94479784 120.20332632 -463.88959568 120.40665264 -464.86302376 120.61614037 C-466.93306978 121.07667377 -468.96160841 121.60381505 -471 122.1875 C-471.72872314 122.3939917 -472.45744629 122.6004834 -473.20825195 122.81323242 C-481.83052511 125.380803 -489.9321833 129.05449333 -498 133 C-498.65597168 133.31839844 -499.31194336 133.63679687 -499.98779297 133.96484375 C-515.47626299 141.58069945 -529.1193739 151.57883878 -542 163 C-542.90621094 163.79535156 -543.81242188 164.59070313 -544.74609375 165.41015625 C-554.14689024 173.75211112 -563.75652863 182.57652578 -570.44921875 193.328125 C-572 195 -572 195 -574.59692383 195.10449219 C-575.78644653 195.05276855 -575.78644653 195.05276855 -577 195 C-577.46921859 187.39525415 -577.82153378 179.79204422 -578.03624344 172.17600632 C-578.13948846 168.63564572 -578.2785115 165.10535397 -578.50878906 161.57080078 C-580.06418118 137.04671318 -580.06418118 137.04671318 -572.76000977 127.79882812 C-567.94449656 122.624598 -562.62136062 118.26085337 -557 114 C-555.43705161 112.72746728 -553.87906758 111.44880221 -552.32714844 110.1628418 C-548.36285465 106.89074039 -544.2338029 103.91188867 -540 101 C-539.28086426 100.50097168 -538.56172852 100.00194336 -537.82080078 99.48779297 C-511.75200924 81.62955427 -483.22234073 70.4755372 -452 66 C-450.90001395 65.83008451 -449.8000279 65.66016901 -448.66670895 65.48510456 C-442.71153524 64.7511117 -436.74545618 64.86021247 -430.75404358 64.86869812 C-429.41202132 64.86699369 -428.06999956 64.86484296 -426.72797865 64.86228687 C-423.81987228 64.85770745 -420.91178713 64.85626555 -418.00367737 64.85725212 C-413.27005687 64.85885099 -408.5364573 64.85362932 -403.80284119 64.84762573 C-396.92657032 64.83952367 -390.05030315 64.83457242 -383.1740284 64.83133507 C-372.28270547 64.82582161 -361.39141358 64.80890471 -350.50010681 64.78999329 C-346.76746088 64.78363665 -343.03481486 64.7773281 -339.30216885 64.77101612 C-338.36929683 64.76943236 -337.43642481 64.7678486 -336.47528394 64.76621684 C-325.86121041 64.74828832 -315.24713468 64.73206068 -304.63305664 64.71704102 C-303.66321677 64.71566514 -302.6933769 64.71428927 -301.69414794 64.71287171 C-286.01728746 64.69099465 -270.34043505 64.6801981 -254.66356201 64.67267027 C-238.53222511 64.66456789 -222.40095672 64.64117431 -206.26965898 64.6047166 C-196.3423262 64.58281802 -186.41513481 64.57298789 -176.48777913 64.57921693 C-169.66437962 64.5824186 -162.84109979 64.5708852 -156.01773734 64.54832252 C-152.09560773 64.53579387 -148.17374513 64.52931229 -144.25160599 64.54073906 C-96.68749119 64.66616122 -50.98344261 54.08929712 -16 20 C-10.37685134 14.24336413 -5.29667119 8.43739164 -1.05859375 1.58203125 C-0.70925781 1.05996094 -0.35992188 0.53789062 0 0 Z " fill="#039F3F" transform="translate(578,182)"/>
<path d="M0 0 C3.41997676 1.30179496 5.78230993 3.88415572 8.35083008 6.40087891 C9.19484375 7.16464844 9.19484375 7.16464844 10.0559082 7.94384766 C12.82726672 10.65075598 13.99292711 11.96266125 14.21411133 15.92431641 C12.85778968 21.43622524 10.25345606 26.63061179 7.91333008 31.77587891 C7.41704102 32.88423096 6.92075195 33.99258301 6.40942383 35.13452148 C1.78638378 45.42754004 -2.88468832 55.69746603 -7.96166992 65.77587891 C-7.38723145 65.41236328 -6.81279297 65.04884766 -6.22094727 64.67431641 C-3.6013586 63.02750669 -0.96937113 61.40163598 1.66333008 59.77587891 C3.0187793 58.91736328 3.0187793 58.91736328 4.40161133 58.04150391 C13.04550572 52.74159785 13.04550572 52.74159785 18.03833008 53.77587891 C22.08346725 55.77441017 25.47714166 58.23261077 27.03833008 62.52587891 C27.03833008 63.94254557 27.03833008 65.35921224 27.03833008 66.77587891 C27.9071582 66.40333984 28.77598633 66.03080078 29.67114258 65.64697266 C30.82356445 65.17388672 31.97598633 64.70080078 33.16333008 64.21337891 C34.3002832 63.73771484 35.43723633 63.26205078 36.60864258 62.77197266 C41.20152079 61.43805017 44.16001233 61.78332304 48.37426758 64.01025391 C49.0471582 64.51041016 49.72004883 65.01056641 50.41333008 65.52587891 C51.10168945 66.01572266 51.79004883 66.50556641 52.49926758 67.01025391 C54.03833008 68.77587891 54.03833008 68.77587891 54.39770508 71.20556641 C54.00868432 73.98791055 53.27784003 75.70505919 51.91333008 78.15087891 C48.39631112 84.80197493 45.7560579 91.77142575 43.03833008 98.77587891 C46.00833008 98.28087891 46.00833008 98.28087891 49.03833008 97.77587891 C49.07958008 96.53837891 49.12083008 95.30087891 49.16333008 94.02587891 C50.35059295 83.95788971 55.63419175 76.04451492 63.33129883 69.68603516 C73.78658245 62.30849736 83.63191219 60.97494728 96.03833008 62.77587891 C96.55782227 61.72529297 97.07731445 60.67470703 97.61254883 59.59228516 C99.40793026 55.97089469 101.22013461 52.35825679 103.04272461 48.75048828 C103.85880792 47.13192971 104.66655019 45.50916804 105.47192383 43.88525391 C108.00804153 38.99595158 110.38777296 35.81297744 115.03833008 32.77587891 C118.41333008 31.96337891 118.41333008 31.96337891 121.03833008 31.77587891 C125.69217118 36.91115185 127.94047029 41.74222535 128.16333008 48.65087891 C127.36055822 53.21168164 124.67091793 56.2438058 121.94848633 59.87744141 C115.26153625 70.02410185 111.91706674 82.90019489 110.03833008 94.77587891 C112.00662096 94.09570499 113.9628595 93.38058437 115.91333008 92.65087891 C117.54915039 92.05919922 117.54915039 92.05919922 119.21801758 91.45556641 C122.262438 90.00909532 122.262438 90.00909532 123.31176758 86.92431641 C123.5515332 85.88533203 123.79129883 84.84634766 124.03833008 83.77587891 C128.59097176 69.78685264 135.61878967 56.33692863 149.10083008 49.21337891 C153.86539663 47.0526328 157.83863664 46.05443391 163.03833008 45.77587891 C167.3767872 44.94731969 170.35104084 42.59576831 173.85083008 40.02587891 C182.46881792 33.81770671 191.23909263 27.84745221 200.03833008 21.90087891 C201.04822495 21.21765564 201.04822495 21.21765564 202.07852173 20.52062988 C202.74048553 20.07280151 203.40244934 19.62497314 204.08447266 19.16357422 C204.7335408 18.72440674 205.38260895 18.28523926 206.05134583 17.83276367 C207.32032147 16.97617518 208.59078928 16.12179251 209.86283875 15.26977539 C212.54055323 13.47560768 215.18933224 11.66647175 217.80004883 9.77490234 C218.57993164 9.21577148 219.35981445 8.65664063 220.16333008 8.08056641 C221.12625977 7.36489502 221.12625977 7.36489502 222.10864258 6.63476562 C224.7530633 5.45775751 226.31552328 5.95085364 229.03833008 6.77587891 C230.99536133 8.01025391 230.99536133 8.01025391 232.85083008 9.52587891 C236.25023322 12.21438025 239.73651779 14.50475623 243.47192383 16.69775391 C245.03833008 17.77587891 245.03833008 17.77587891 246.03833008 19.77587891 C245.91235727 24.70819875 245.20110853 29.30613678 243.03833008 33.77587891 C244.68428153 34.01591349 246.33084993 34.2522246 247.97973633 34.47119141 C249.32834786 34.67079615 250.67134582 34.91431177 252.00317383 35.20556641 C257.09912718 36.19448409 259.68230751 35.20705218 264.16723633 32.73291016 C267.15605675 31.20418155 268.76532693 30.94021853 272.03833008 31.77587891 C277.19856313 36.07238196 280.47335826 41.25877695 282.03833008 47.77587891 C282.14799391 50.55492914 281.79907677 53.16170047 281.35083008 55.90087891 C281.24851074 56.62718506 281.14619141 57.35349121 281.04077148 58.10180664 C280.82847744 59.59355431 280.60746321 61.08408736 280.37768555 62.57324219 C280.04846119 64.7101214 279.74392254 66.84893634 279.44848633 68.99072266 C278.9944603 72.25507035 278.52393765 75.51610893 278.03833008 78.77587891 C281.28682985 77.05361395 281.28682985 77.05361395 282.03833008 73.77587891 C282.23947 72.23310777 282.40181367 70.68508077 282.53833008 69.13525391 C282.62083008 68.22904297 282.70333008 67.32283203 282.78833008 66.38916016 C282.87083008 65.44427734 282.95333008 64.49939453 283.03833008 63.52587891 C283.35655046 59.94092743 283.69074401 56.35809321 284.03833008 52.77587891 C284.21428711 50.82681641 284.21428711 50.82681641 284.39379883 48.83837891 C285.10139134 45.47624234 285.83234472 44.29089786 288.35083008 42.02587891 C288.98504883 41.45353516 289.61926758 40.88119141 290.27270508 40.29150391 C291.14668945 39.54126953 291.14668945 39.54126953 292.03833008 38.77587891 C292.71895508 38.11587891 293.39958008 37.45587891 294.10083008 36.77587891 C297.08444293 35.23594969 298.88365344 35.81016157 302.03833008 36.77587891 C306.61460126 39.92842128 306.61460126 39.92842128 308.03833008 42.77587891 C308.29217001 46.83731777 307.98685422 50.30860665 307.10083008 54.27587891 C305.62596955 61.03304134 305.38737413 67.88685157 305.03833008 74.77587891 C306.02833008 74.77587891 307.01833008 74.77587891 308.03833008 74.77587891 C308.02479492 73.72013672 308.02479492 73.72013672 308.01098633 72.64306641 C308.31185857 62.62271255 311.61695316 53.80441674 318.25708008 46.25244141 C327.04890801 38.15312047 336.03454309 34.23301995 348.09692383 34.45947266 C353.70142471 35.06234725 357.42254734 37.20261677 361.41333008 41.08837891 C364.657786 46.45420986 365.5658664 51.40379659 364.61645508 57.53369141 C361.80847089 68.42411655 350.24263182 78.01461701 341.03833008 83.77587891 C346.7789057 84.24449732 350.47275156 83.16355763 355.03833008 79.77587891 C357.15257047 77.91566 359.22003102 76.02962899 361.24145508 74.06884766 C362.1309082 73.42882812 362.1309082 73.42882812 363.03833008 72.77587891 C364.02833008 73.10587891 365.01833008 73.43587891 366.03833008 73.77587891 C366.66788114 82.58959373 363.9445964 87.7004541 358.41333008 94.46337891 C352.15291576 101.16352658 344.94756596 104.52153815 335.77270508 104.97509766 C328.49572453 104.44491765 321.34551262 100.73284128 316.03833008 95.77587891 C314.1851397 93.51818505 312.62985124 91.23550252 311.03833008 88.77587891 C310.59102539 89.16259766 310.1437207 89.54931641 309.68286133 89.94775391 C308.42833919 91.02840837 307.17034634 92.10504313 305.90942383 93.17822266 C304.39895814 94.46795223 302.90367773 95.7754536 301.41333008 97.08837891 C297.4101975 99.93270995 297.4101975 99.93270995 294.03833008 99.77587891 C289.9551656 97.43600097 286.55559551 95.3276752 285.03833008 90.77587891 C280.77744575 93.03947371 277.49507606 95.97489357 274.00317383 99.25244141 C271.87462 100.90281117 270.71254224 101.54377747 268.03833008 101.77587891 C265.56567383 101.10400391 265.56567383 101.10400391 262.97583008 100.02587891 C262.11860352 99.68041016 261.26137695 99.33494141 260.37817383 98.97900391 C258.02358873 97.76829905 256.73469939 96.7830087 255.03833008 94.77587891 C253.30148138 86.83831802 254.82243339 79.77074017 256.41333008 71.90087891 C256.64793945 70.67884766 256.88254883 69.45681641 257.12426758 68.19775391 C258.83756123 59.37818545 258.83756123 59.37818545 260.03833008 55.77587891 C258.55333008 56.27087891 258.55333008 56.27087891 257.03833008 56.77587891 C256.00398197 59.64820678 256.00398197 59.64820678 255.31958008 63.18994141 C255.1035614 64.16173843 255.1035614 64.16173843 254.88317871 65.15316772 C254.42240617 67.23323287 253.97924265 69.3165212 253.53833008 71.40087891 C253.09532503 73.46324373 252.64840593 75.52455048 252.19348145 77.58432007 C251.77828256 79.46871326 251.37573571 81.355881 250.97387695 83.24316406 C248.53407036 92.45610807 248.53407036 92.45610807 245.31176758 95.29931641 C240.42928031 97.48940329 235.46316177 99.11352403 230.03833008 98.77587891 C228.03833008 96.77587891 228.03833008 96.77587891 227.80615234 93.56323242 C228.03523056 89.82643924 228.68181493 86.75668214 229.75317383 83.17822266 C230.10959961 81.96457031 230.46602539 80.75091797 230.83325195 79.50048828 C231.21030273 78.25074219 231.58735352 77.00099609 231.97583008 75.71337891 C232.71707102 73.22337264 233.45545626 70.73251408 234.19067383 68.24072266 C234.52059326 67.1436499 234.8505127 66.04657715 235.19042969 64.91625977 C236.01068854 61.87825527 236.57753587 58.88675182 237.03833008 55.77587891 C232.30058675 58.3585641 231.24317767 62.48414815 229.47192383 67.27587891 C228.99167503 68.52401367 228.99167503 68.52401367 228.50172424 69.79736328 C227.48135977 72.45256114 226.47734134 75.1135181 225.47583008 77.77587891 C224.46926887 80.43760466 223.45911805 83.09774733 222.43922424 85.75439453 C221.8055377 87.40623992 221.17969009 89.06111885 220.56260681 90.71923828 C220.27543289 91.47011719 219.98825897 92.22099609 219.69238281 92.99462891 C219.44463608 93.65398437 219.19688934 94.31333984 218.94163513 94.99267578 C217.89961128 97.04972195 216.80905084 98.30351301 215.03833008 99.77587891 C208.4035345 101.53320314 201.75205014 102.33720915 195.03833008 100.77587891 C193.61465905 97.95898293 192.92583547 96.36878497 193.52294922 93.22167969 C193.86962646 92.31401855 194.21630371 91.40635742 194.57348633 90.47119141 C195.16045288 88.90534302 195.16045288 88.90534302 195.75927734 87.30786133 C196.20198975 86.18355713 196.64470215 85.05925293 197.10083008 83.90087891 C197.76973267 82.14578003 197.76973267 82.14578003 198.45214844 80.35522461 C202.65630878 69.45254551 207.18890698 58.67974835 211.83349609 47.95800781 C212.24220947 47.00516151 212.24220947 47.00516151 212.65917969 46.0330658 C213.39803789 44.31140106 214.14383561 42.59271909 214.89013672 40.87426758 C216.02113336 37.82228408 216.61932926 34.99628595 217.03833008 31.77587891 C204.9317271 31.99206825 193.85996507 38.47900831 183.66333008 44.52587891 C183.0270166 44.90228516 182.39070313 45.27869141 181.73510742 45.66650391 C178.73554226 47.50682874 177.02090679 48.80201384 175.03833008 51.77587891 C176.27583008 53.22994141 176.27583008 53.22994141 177.53833008 54.71337891 C182.16841085 62.15316681 180.90082569 72.09303507 179.37426758 80.38134766 C175.7229956 93.66880262 167.40619223 105.48861832 155.60083008 112.77587891 C149.27794883 115.94281769 143.04774439 116.60269846 136.22583008 114.71337891 C129.28622123 112.01328462 126.50907433 105.91698613 123.03833008 99.77587891 C122.29969727 100.46552734 121.56106445 101.15517578 120.80004883 101.86572266 C114.0795969 108.10422983 107.2393518 114.09086176 100.03833008 119.77587891 C99.32547852 120.35337891 98.61262695 120.93087891 97.87817383 121.52587891 C96.03833008 122.77587891 96.03833008 122.77587891 93.60083008 122.77587891 C88.83099997 120.91448179 85.91992708 116.87077991 83.03833008 112.77587891 C82.45825195 113.05302734 81.87817383 113.33017578 81.28051758 113.61572266 C73.90922367 117.03376488 67.1000407 119.067249 59.03833008 116.77587891 C55.57678897 114.68735131 52.58583798 112.52728203 51.35083008 108.57666016 C51.19614258 107.68527344 51.19614258 107.68527344 51.03833008 106.77587891 C50.37188477 107.13939453 49.70543945 107.50291016 49.01879883 107.87744141 C47.07963935 108.93516476 45.13946148 109.99102236 43.19848633 111.04541016 C41.13612529 112.17473765 39.08100045 113.31741127 37.03442383 114.47509766 C36.08696289 115.00748047 35.13950195 115.53986328 34.16333008 116.08837891 C33.2996582 116.57951172 32.43598633 117.07064453 31.54614258 117.57666016 C29.02056033 118.78437628 26.7956899 119.35585098 24.03833008 119.77587891 C23.22472013 118.4849111 22.41247961 117.19308015 21.60083008 115.90087891 C21.14836914 115.18158203 20.6959082 114.46228516 20.22973633 113.72119141 C18.041517 110.14829559 17.79639518 108.0001895 18.03833008 103.77587891 C18.86450195 100.89160156 18.86450195 100.89160156 20.00708008 97.93994141 C20.41313477 96.87646484 20.81918945 95.81298828 21.23754883 94.71728516 C21.88143555 93.07566406 21.88143555 93.07566406 22.53833008 91.40087891 C22.96758789 90.28326172 23.3968457 89.16564453 23.83911133 88.01416016 C24.8966709 85.26450527 25.96329678 82.51873868 27.03833008 79.77587891 C23.28697979 80.80727205 20.9020501 81.48312972 18.69750977 84.78271484 C17.48418595 87.37106942 16.42708456 89.97804174 15.41333008 92.65087891 C15.03362061 93.59165283 14.65391113 94.53242676 14.26269531 95.50170898 C13.1605055 98.2499989 12.09297639 101.00904396 11.03833008 103.77587891 C10.75650879 104.51016113 10.4746875 105.24444336 10.18432617 106.00097656 C9.10494429 108.81847563 8.03767756 111.63789717 7.01098633 114.47509766 C6.03833008 116.77587891 6.03833008 116.77587891 4.03833008 118.77587891 C1.79174805 119.18652344 1.79174805 119.18652344 -0.96948242 119.40869141 C-1.95561523 119.49248047 -2.94174805 119.57626953 -3.95776367 119.66259766 C-4.99030273 119.74123047 -6.0228418 119.81986328 -7.08666992 119.90087891 C-8.12694336 119.98724609 -9.1672168 120.07361328 -10.23901367 120.16259766 C-12.81268582 120.3751027 -15.3867501 120.57917046 -17.96166992 120.77587891 C-19.40616381 116.17584424 -18.43120727 113.81026762 -16.35620117 109.54931641 C-15.93548592 108.66682724 -15.93548592 108.66682724 -15.50627136 107.76651001 C-14.6083591 105.8881524 -13.69246579 104.01934418 -12.77416992 102.15087891 C-8.73466666 93.83123043 -4.89933476 85.56291633 -1.96166992 76.77587891 C-4.09221587 77.11796657 -6.21626446 77.50071562 -8.33666992 77.90087891 C-10.11170898 78.21412109 -10.11170898 78.21412109 -11.92260742 78.53369141 C-12.92549805 78.94361328 -13.92838867 79.35353516 -14.96166992 79.77587891 C-16.05030622 82.52121571 -16.05030622 82.52121571 -16.96166992 85.77587891 C-18.6569677 89.98140597 -20.45872874 94.13796872 -22.28222656 98.2890625 C-22.85876633 99.61034683 -23.42783232 100.9349183 -23.98925781 102.26269531 C-27.69245903 111.01374474 -30.68548592 117.97280573 -39.75390625 122.02294922 C-43.06695506 123.32639356 -46.40500958 124.50057105 -49.77416992 125.65087891 C-52.2054083 126.5163261 -54.63509927 127.38613247 -57.06323242 128.26025391 C-58.24433594 128.685 -59.42543945 129.10974609 -60.64233398 129.54736328 C-72.80803883 134.04999838 -84.42335669 139.87838998 -95.9675293 145.76269531 C-99.41490408 147.51423858 -102.87663022 149.2370304 -106.33666992 150.96337891 C-107.6570465 151.62340699 -108.97736109 152.28355909 -110.29760742 152.94384766 C-114.85229492 155.22119141 -119.40698242 157.49853516 -123.96166992 159.77587891 C-124.29166992 158.12587891 -124.62166992 156.47587891 -124.96166992 154.77587891 C-118.46364607 148.45290284 -111.02890363 143.92602036 -103.27416992 139.33837891 C-102.07124063 138.6197395 -100.86876419 137.90034151 -99.66674805 137.18017578 C-97.8739927 136.10650024 -96.08094051 135.0333581 -94.28633118 133.96278381 C-83.59589295 127.58355379 -73.04280992 121.09543002 -62.96166992 113.77587891 C-62.19854492 113.23705078 -61.43541992 112.69822266 -60.64916992 112.14306641 C-51.81573848 105.27645368 -47.47621373 94.02169633 -42.80541992 84.13525391 C-42.41955215 83.31907593 -42.03368439 82.50289795 -41.63612366 81.6619873 C-37.48485827 72.83203116 -33.51395088 63.92413456 -29.59228516 54.99023438 C-28.37438454 52.21949178 -27.14760195 49.45278152 -25.9206543 46.68603516 C-25.14082089 44.91413578 -24.36150325 43.14200929 -23.58276367 41.36962891 C-23.03452187 40.13702332 -23.03452187 40.13702332 -22.47520447 38.8795166 C-21.978218 37.74056946 -21.978218 37.74056946 -21.47119141 36.57861328 C-21.17856918 35.91422241 -20.88594696 35.24983154 -20.5844574 34.56530762 C-19.79732075 32.61944613 -19.79732075 32.61944613 -19.96166992 29.77587891 C-35.81304466 33.94776374 -35.81304466 33.94776374 -47.96166992 43.77587891 C-48.12880562 46.40119415 -48.12880562 46.40119415 -47.96166992 48.77587891 C-44.72556462 50.73102586 -42.68704676 50.93472994 -38.96166992 50.46337891 C-38.11604492 50.36412109 -37.27041992 50.26486328 -36.39916992 50.16259766 C-34.20641254 49.81470826 -32.10324622 49.35588915 -29.96166992 48.77587891 C-30.26409825 51.59854329 -30.90199372 52.71427766 -32.89916992 54.77587891 C-40.09471568 59.47501083 -47.31372211 62.03992832 -55.96166992 60.77587891 C-60.12208603 59.05744617 -62.66112539 56.63750724 -64.96166992 52.77587891 C-66.55366484 46.39706935 -66.30429379 41.56976028 -62.96166992 35.77587891 C-56.44499167 26.09959907 -45.13109263 22.43120348 -34.64916992 18.40087891 C-23.63365964 14.04046435 -13.36432366 9.6558088 -4.39916992 1.71337891 C-1.96166992 -0.22412109 -1.96166992 -0.22412109 0 0 Z M337.47583008 59.15087891 C333.44464514 61.75306612 331.37623077 65.2107448 330.03833008 69.77587891 C330.14172403 72.660862 330.14172403 72.660862 331.03833008 74.77587891 C334.82539988 72.68090412 337.74121797 70.34344143 340.78833008 67.27587891 C341.9562207 66.11572266 341.9562207 66.11572266 343.14770508 64.93212891 C345.23465625 62.83302012 345.23465625 62.83302012 346.03833008 59.77587891 C342.50713683 57.63576179 341.4091408 57.63275898 337.47583008 59.15087891 Z M152.03833008 68.77587891 C148.82626321 72.13394882 146.15128887 75.21274787 145.03833008 79.77587891 C145.10810082 83.43343284 145.10810082 83.43343284 146.03833008 86.77587891 C148.89695466 89.09351034 148.89695466 89.09351034 152.35083008 88.71337891 C157.60961692 87.3763992 160.5591473 85.19514471 163.33520508 80.65478516 C165.12998251 77.00991181 166.05038015 74.43863259 165.97583008 70.33837891 C165.2102534 67.46379639 165.2102534 67.46379639 162.03833008 65.77587891 C157.55252858 65.77587891 155.82392782 66.458166 152.03833008 68.77587891 Z M84.22192383 79.77978516 C80.50480824 83.09774739 77.65465387 85.92690754 76.03833008 90.77587891 C76.0174587 93.98994863 76.0174587 93.98994863 77.03833008 96.77587891 C79.78527533 99.03730149 79.78527533 99.03730149 82.53833008 98.65087891 C85.67801733 97.55198837 86.4353276 96.67655005 88.03833008 93.77587891 C89.761277 88.96976381 90.24612173 84.86677447 90.03833008 79.77587891 C87.59516714 78.86841838 86.55935155 78.4879165 84.22192383 79.77978516 Z " fill="#0EADEC" transform="translate(157.961669921875,44.22412109375)"/>
<path d="M0 0 C1.38702698 0.00394052 1.38702698 0.00394052 2.8020747 0.00796065 C3.77910853 0.0068068 4.75614237 0.00565296 5.76278329 0.00446415 C9.08039088 0.00178924 12.39795122 0.00632679 15.71555641 0.01075396 C18.1005542 0.01031844 20.48555193 0.00944388 22.87054941 0.00816479 C28.07849701 0.00638714 33.28643434 0.00774453 38.49438027 0.011803 C46.2384881 0.01782117 53.9825887 0.01814038 61.72669844 0.01726101 C74.75152118 0.01594495 87.77633886 0.0192967 100.80116013 0.02527842 C113.70352829 0.03118876 126.60589435 0.03504301 139.50826386 0.03613123 C140.30950356 0.03619997 141.11074325 0.03626871 141.93626294 0.03633953 C146.00509994 0.03667785 150.07393695 0.03697924 154.14277395 0.03726641 C182.98714017 0.03936867 211.83150363 0.04611118 240.6758683 0.05556902 C268.70353742 0.0647485 296.73120579 0.07183454 324.75887612 0.07607684 C325.62230891 0.07620836 326.4857417 0.07633989 327.37533912 0.0764754 C336.04602465 0.07779388 344.71671018 0.0790697 353.38739573 0.08031426 C371.05170413 0.0828507 388.71601248 0.08567195 406.38032082 0.08866534 C407.19255612 0.08880263 408.00479143 0.08893992 408.84163993 0.08908137 C463.11182333 0.09828717 517.38200516 0.11415371 571.65218666 0.13100848 C571.65218666 0.46100848 571.65218666 0.79100848 571.65218666 1.13100848 C381.24218666 1.13100848 190.83218666 1.13100848 -5.34781334 1.13100848 C-5.34781334 88.91100848 -5.34781334 176.69100848 -5.34781334 267.13100848 C-3.69781334 265.48100848 -2.04781334 263.83100848 -0.34781334 262.13100848 C23.49808832 239.07210028 53.56321341 222.6552291 85.83968666 215.00600848 C87.35272377 214.62895769 87.35272377 214.62895769 88.89632729 214.24428973 C107.3355577 209.82257848 125.5512027 209.845984 144.39477804 209.88762948 C148.4331705 209.89428323 152.47155046 209.88919452 156.50994423 209.88540301 C163.49521884 209.88020448 170.48046562 209.88165223 177.46573952 209.88717875 C188.52966097 209.89544063 199.59352351 209.88411472 210.65743569 209.86997637 C214.45413507 209.86537635 218.25083462 209.86092579 222.04753426 209.85653815 C222.99614131 209.85544001 223.94474836 209.85434186 224.92210108 209.85321045 C235.69508303 209.84106168 246.46806686 209.83349209 257.24105385 209.82754168 C258.22457571 209.82699362 259.20809757 209.82644556 260.22142312 209.82588089 C276.14418568 209.81742928 292.06693131 209.82075731 307.98969397 209.82669603 C324.38909314 209.83233256 340.78840778 209.81868752 357.18778113 209.78914323 C367.27384474 209.77170052 377.35966248 209.76985271 387.44572458 209.78878839 C394.37090327 209.80048092 401.2959175 209.7938062 408.22107503 209.77331918 C412.2019316 209.76211088 416.18236275 209.75856653 420.16319969 209.77749476 C442.4637031 209.87617502 464.03283115 208.34146978 484.96468666 199.94350848 C485.94485756 199.56186541 486.92502846 199.18022234 487.93490151 198.78701434 C507.36341365 191.02348803 524.52813623 180.64521816 539.65218666 166.13100848 C540.53390541 165.31245379 541.41562416 164.4938991 542.32406166 163.65053973 C554.35610776 152.1453205 562.87128071 138.75142682 570.65218666 124.13100848 C570.98218666 124.13100848 571.31218666 124.13100848 571.65218666 124.13100848 C572.45614416 131.63352054 572.79287406 139.02653373 572.76571205 146.5692409 C572.76585808 147.65349352 572.76600411 148.73774615 572.76615456 149.85485491 C572.76546412 153.39875017 572.75771285 156.94259127 572.74984291 160.48647723 C572.74797564 162.95940276 572.7465532 165.43232866 572.74555519 167.90525469 C572.74175437 174.38408097 572.73194508 180.86288449 572.72085121 187.34170184 C572.71058454 193.96482696 572.70604635 200.5879558 572.70101479 207.2110866 C572.69032044 220.18440355 572.67346834 233.1577048 572.65218666 246.13100848 C572.32218666 246.13100848 571.99218666 246.13100848 571.65218666 246.13100848 C571.32218666 225.67100848 570.99218666 205.21100848 570.65218666 184.13100848 C568.01218666 187.43100848 565.37218666 190.73100848 562.65218666 194.13100848 C535.78475212 226.10547603 495.89469236 243.51537056 454.65218666 247.13100848 C444.76675806 247.62255134 434.86222195 247.53602713 424.96724978 247.50511214 C421.00729369 247.49613988 417.04736856 247.50479729 413.0874131 247.51131853 C406.2440712 247.52041647 399.40079658 247.51919108 392.55745438 247.51113352 C382.63629017 247.49982135 372.71522017 247.50901452 362.7940641 247.52369533 C346.65603431 247.54739778 330.51801623 247.56082146 314.37996987 247.56484637 C313.41691601 247.56509124 312.45386216 247.5653361 311.46162485 247.56558839 C300.7248726 247.56813264 289.98812126 247.56870167 279.25136879 247.56765398 C275.35966551 247.56732093 271.46796222 247.56703555 267.57625893 247.56679949 C266.61591393 247.5667367 265.65556893 247.56667392 264.66612256 247.56660923 C248.5886568 247.56600206 232.51124491 247.58097891 216.43380162 247.60763255 C206.5517178 247.62333656 196.66980927 247.62580283 186.78772389 247.61049853 C180.00369883 247.60095537 173.21977854 247.60590828 166.43576563 247.62171235 C162.53784327 247.63031276 158.64020057 247.63277826 154.74229363 247.61718592 C107.85508659 247.44248291 64.50887367 258.57718579 26.65218666 287.13100848 C25.67306313 287.86891619 25.67306313 287.86891619 24.67415932 288.62173113 C13.79406829 296.92837951 4.13408736 306.27753008 -5.34781334 316.13100848 C-6.00781334 315.80100848 -6.66781334 315.47100848 -7.34781334 315.13100848 C-7.37067812 275.14628742 -7.38831075 235.16156722 -7.39887867 195.17684093 C-7.40012945 190.46144951 -7.40142376 185.74605809 -7.40274498 181.03066668 C-7.40300729 180.09187595 -7.4032696 179.15308522 -7.40353986 178.18584629 C-7.40789689 162.96431658 -7.41578462 147.74279063 -7.42496613 132.52126316 C-7.43430175 116.91465731 -7.43986875 101.30805343 -7.44190183 85.70144489 C-7.44327725 76.06327747 -7.44762887 66.42512067 -7.4557298 56.78695651 C-7.46099612 50.18703495 -7.4626179 43.58711892 -7.46131472 36.98719541 C-7.46067116 33.17348741 -7.46169086 29.35979804 -7.46701881 25.54609331 C-7.47273956 21.42135559 -7.47081457 17.29665804 -7.46806785 13.17191729 C-7.4709807 11.95307237 -7.47389354 10.73422744 -7.47689465 9.47844782 C-7.4749036 8.38267057 -7.47291255 7.28689331 -7.47086117 6.15791067 C-7.47124089 5.20443293 -7.47162061 4.25095518 -7.47201183 3.26858416 C-7.20567812 -1.31527548 -3.8111341 0.01030949 0 0 Z " fill="#EFA70C" transform="translate(7.3478133380413055,-0.13100847601890564)"/>
<path d="M0 0 C2.83329314 1.57405174 4.51976456 2.75563303 5.70703125 5.83203125 C6.56012833 10.00184223 6.19837047 11.65905076 4 15.4375 C0.45405415 18.46632874 -1.36299711 19.08280362 -6 19 C-9.16553069 17.70501017 -10.69376849 16.36747781 -12.875 13.75 C-14.39424009 10.03630199 -14.04821378 7.84345052 -13 4 C-9.17615046 -0.84354276 -5.87896086 -1.52852982 0 0 Z " fill="#21B3ED" transform="translate(465,58)"/>
<path d="M0 0 C2.41632645 1.87936502 3.14474923 2.94397521 4.25 5.75 C4.56096221 10.27888552 4.05424554 13.75078585 1.1875 17.3125 C-2.60610326 19.16894415 -5.60279314 19.60457596 -9.75 18.75 C-12.5600346 16.95636089 -14.25940468 15.73119065 -15.75 12.75 C-16.32884232 5.68812375 -16.32884232 5.68812375 -13.9375 1.8125 C-9.83745055 -2.05326091 -5.03426638 -2.2883029 0 0 Z M-10.75 2.75 C-10.75 6.71 -10.75 10.67 -10.75 14.75 C-9.76 14.75 -8.77 14.75 -7.75 14.75 C-7.75 13.76 -7.75 12.77 -7.75 11.75 C-6.43 11.42 -5.11 11.09 -3.75 10.75 C-3.75 12.07 -3.75 13.39 -3.75 14.75 C-2.76 14.75 -1.77 14.75 -0.75 14.75 C-0.935625 13.863125 -1.12125 12.97625 -1.3125 12.0625 C-1.73042484 8.89821189 -1.55777742 6.80160358 -0.75 3.75 C-3.03705831 2.60647084 -4.34264762 2.64665561 -6.875 2.6875 C-8.793125 2.7184375 -8.793125 2.7184375 -10.75 2.75 Z " fill="#EB6760" transform="translate(555.75,77.25)"/>
<path d="M0 0 C0.66 0 1.32 0 2 0 C2 4.62 2 9.24 2 14 C3.32 14 4.64 14 6 14 C5.67 12.35 5.34 10.7 5 9 C6.65 9 8.3 9 10 9 C10 10.65 10 12.3 10 14 C11.32 14 12.64 14 14 14 C14 14.66 14 15.32 14 16 C10.79826746 17.60086627 7.47422941 17.49917089 4 17 C1.1899654 15.20636089 -0.50940468 13.98119065 -2 11 C-2.35555556 3.53333333 -2.35555556 3.53333333 0 0 Z " fill="#E53A44" transform="translate(542,79)"/>
<path d="M0 0 C0.66 0.33 1.32 0.66 2 1 C-1.3 4.3 -4.6 7.6 -8 11 C-8 6.67750434 -5.85084926 5.11604454 -3 2 C-2.01 1.34 -1.02 0.68 0 0 Z " fill="#5DC7F2" transform="translate(103,72)"/>
<path d="M0 0 C3 -0.3125 3 -0.3125 6 0 C6.66 0.66 7.32 1.32 8 2 C7.34 2.66 6.68 3.32 6 4 C3.27130593 3.96712417 0.7033382 3.43602229 -2 3 C-1.34 2.01 -0.68 1.02 0 0 Z " fill="#E53742" transform="translate(547,76)"/>
<path d="M0 0 C0.66 0.33 1.32 0.66 2 1 C0.59921602 2.53547475 -0.82120903 4.05305148 -2.25 5.5625 C-3.43335938 6.83287109 -3.43335938 6.83287109 -4.640625 8.12890625 C-7 10 -7 10 -9.296875 9.77734375 C-10.13992188 9.39255859 -10.13992188 9.39255859 -11 9 C-10.45730469 8.60167969 -9.91460937 8.20335937 -9.35546875 7.79296875 C-8.64003906 7.26316406 -7.92460937 6.73335937 -7.1875 6.1875 C-6.47980469 5.66542969 -5.77210938 5.14335937 -5.04296875 4.60546875 C-3.21468607 3.16871123 -1.60103312 1.68184237 0 0 Z " fill="#ED7770" transform="translate(267,162)"/>
<path d="M0 0 C1.98 0.495 1.98 0.495 4 1 C3.67 2.32 3.34 3.64 3 5 C1.68 4.67 0.36 4.34 -1 4 C-0.67 2.68 -0.34 1.36 0 0 Z " fill="#EA665F" transform="translate(548,81)"/>
</svg>
